# AST/ASF file generated using VICON BodyLanguage
# -----------------------------------------------
:version 1.10
:name VICON
:units
  mass 1.0
  length 0.45
  angle deg
:documentation
   .ast/.asf automatically generated from VICON data using
   VICON BodyBuilder and BodyLanguage model FoxedUp or BRILLIANT.MOD
:root
   order TX TY TZ RX RY RZ
   axis XYZ
   position 0 0 0  
   orientation 0 0 0 
:bonedata
  begin
     id 1 
     name lhipjoint
     direction 0.576517 -0.752066 0.319413 
     length 2.45433 
     axis 0 0 0  XYZ
  end
  begin
     id 2 
     name lfemur
     direction 0.34202 -0.939693 0  
     length 7.54459  
     axis 0 0 20  XYZ
    dof rx ry rz
    limits (-160.0 20.0)
           (-70.0 70.0)
           (-60.0 70.0)
  end
  begin
     id 3 
     name ltibia
     direction 0.34202 -0.939693 0   
     length 7.73986   
     axis 0 0 20   XYZ
    dof rx
    limits (-10.0 170.0)
  end
  begin
     id 4 
     name lfoot
     direction 0.090693 -0.249177 0.964202   
     length 2.28437   
     axis -90 7.62852e-016 20   XYZ
    dof rx rz
    limits (-45.0 90.0)
           (-70.0 20.0)
  end
  begin
     id 5 
     name ltoes
     direction 1.5356e-011 -4.21928e-011 1   
     length 1.14243   
     axis -90 7.62852e-016 20   XYZ
    dof rx
    limits (-90.0 20.0)
  end
  begin
     id 6 
     name rhipjoint
     direction -0.573937 -0.753736 0.320122   
     length 2.44889  
     axis 0 0 0  XYZ 
  end
  begin
     id 7 
     name rfemur
     direction -0.34202 -0.939693 0   
     length 7.50166   
     axis 0 0 -20   XYZ
    dof rx ry rz
    limits (-160.0 20.0)
           (-70.0 70.0)
           (-70.0 60.0)
  end
  begin
     id 8 
     name rtibia
     direction -0.34202 -0.939693 0   
     length 7.54266   
     axis 0 0 -20   XYZ
    dof rx
    limits (-10.0 170.0)
 end
 begin
     id 9 
     name rfoot
     direction -0.114017 -0.31326 0.942798   
     length 2.34212  
     axis -90 -7.62852e-016 -20   XYZ
    dof rx rz
    limits (-45.0 90.0)
           (-20.0 70.0)
  end
  begin
     id 10 
     name rtoes
     direction -1.53557e-011 -4.21867e-011 1   
     length 1.16246   
     axis -90 -7.62852e-016 -20   XYZ
    dof rx
    limits (-90.0 20.0)
  end
  begin
     id 11 
     name lowerback
     direction -0.0228371 0.999155 -0.034167   
     length 2.0537   
     axis 0 0 0   XYZ
    dof rx ry rz
    limits (-20.0 45.0)
           (-30.0 30.0)
           (-30.0 30.0)
  end
  begin
     id 12 
     name upperback
     direction 0.0198981 0.999794 0.00389455   
     length 2.05302   
     axis 0 0 0   XYZ
    dof rx ry rz
    limits (-20.0 45.0)
           (-30.0 30.0)
           (-30.0 30.0)
  end
  begin
     id 13 
     name thorax
     direction 0.0304566 0.99935 0.0192987   
     length 2.05315   
     axis 0 0 0   XYZ
    dof rx ry rz
    limits (-20.0 45.0)
           (-30.0 30.0)
           (-30.0 30.0)
  end
  begin
     id 14 
     name lowerneck
     direction -0.0196762 0.99417 0.106017   
     length 1.82056   
     axis 0 0 0   XYZ
    dof rx ry rz
    limits (-20.0 45.0)
           (-30.0 30.0)
           (-30.0 30.0)
  end
  begin
     id 15 
     name upperneck
     direction 0.00517787 0.9802 -0.197944   
     length 1.83835   
     axis 0 0 0   XYZ
    dof rx ry rz
    limits (-20.0 45.0)
           (-30.0 30.0)
           (-30.0 30.0)
  end
  begin
     id 16
     name head
     direction 0.00211419 0.996945 -0.078081  
     length 1.85629  
     axis 0 0 0   XYZ
    dof rx ry rz
    limits (-20.0 45.0)
           (-30.0 30.0)
           (-30.0 30.0)
  end
  begin
     id 17 
     name lclavicle
     direction 0.930001 0.365811 -0.0357824  
     length 3.81961  
     axis 0 0 0   XYZ
    dof ry rz
    limits (-20.0 10.0)
           (0.0 20.0)
  end
  begin
     id 18 
     name lhumerus
     direction 1 -4.48968e-011 -3.06644e-027   
     length 5.14507   
     axis 180 -30 -90   XYZ
    dof rx ry rz
    limits (-60.0 90.0)
           (-90.0 90.0)
           (-90.0 90.0)
  end
  begin
     id 19
     name lradius
     direction 1 -4.48965e-011 9.06925e-028   
     length 3.50646   
     axis 180 -30 -90   XYZ
    dof rx
    limits (-10.0 170.0)
  end
  begin
     id 20
     name lwrist
     direction 1 -4.48957e-011 1.03922e-027   
     length 1.75323   
     axis -2.56395e-016 90 90   XYZ
    dof ry
    limits (-180.0 0.0)
 end
  begin
     id 21 
     name lhand
     direction 1 -4.48967e-011 2.08017e-027   
     length 0.629969   
     axis -1.32723e-015 90 90   XYZ
    dof rx rz
    limits (-90.0 90.0)
           (-45.0 45.0)
  end
  begin
     id 22 
     name lfingers
     direction 1 -4.49089e-011 4.20095e-027   
     length 0.507897   
     axis -2.6545e-015 90 90   XYZ
    dof rx
    limits (0.0 90.0)
  end
  begin
     id 23
     name lthumb
     direction 0.707107 -6.35001e-011 0.707107   
     length 0.729241   
     axis -90 45 5.05613e-014   XYZ
    dof rx rz
    limits (-45.0 45.0)
           (-45.0 45.0)
  end
  begin
     id 24 
     name rclavicle
     direction -0.881882 0.464123 -0.0829113   
     length 3.47515  
     axis 0 0 0   XYZ 
    dof ry rz
    limits (-10.0 20.0)
           (-20.0 0.0)
  end
  begin
     id 25 
     name rhumerus
     direction -1 -4.48961e-011 -1.55672e-027  
     length 5.232   
     axis 180 30 90   XYZ
    dof rx ry rz
    limits (-90.0 60.0)
           (-90.0 90.0)
           (-90.0 90.0)
  end
  begin
     id 26 
     name rradius
     direction -1 -4.48963e-011 6.18178e-029   
     length 3.65641   
     axis 180 30 90   XYZ
    dof rx
    limits (-10.0 170.0)
  end
  begin
     id 27 
     name rwrist
     direction -1 -4.48982e-011 1.04136e-027   
     length 1.8282   
     axis -2.56395e-016 -90 -90   XYZ
    dof ry
    limits (-180.0 0.0)
  end
  begin
     id 28
     name rhand
     direction -1 -4.48929e-011 2.07378e-027   
     length 0.656807   
     axis -1.32723e-015 -90 -90   XYZ
    dof rx rz
    limits (-90.0 90.0)
           (-45.0 45.0)
  end
  begin
     id 29
     name rfingers
     direction -1 -4.489e-011 4.13816e-027   
     length 0.529535   
     axis -2.6545e-015 -90 -90   XYZ
    dof rx
    limits (0.0 90.0)
  end
  begin
     id 30
     name rthumb
     direction -0.707107 -6.34843e-011 0.707107   
     length 0.760309   
     axis -90 -45 -5.05613e-014   XYZ
    dof rx rz
    limits (-45.0 45.0)
           (-45.0 45.0)
  end
:hierarchy
  begin
    root lhipjoint rhipjoint lowerback
    lhipjoint lfemur
    lfemur ltibia
    ltibia lfoot
    lfoot ltoes
    rhipjoint rfemur
    rfemur rtibia
    rtibia rfoot
    rfoot rtoes
    lowerback upperback
    upperback thorax
    thorax lowerneck lclavicle rclavicle
    lowerneck upperneck
    upperneck head
    lclavicle lhumerus
    lhumerus lradius
    lradius lwrist
    lwrist lhand lthumb
    lhand lfingers
    rclavicle rhumerus
    rhumerus rradius
    rradius rwrist
    rwrist rhand rthumb
    rhand rfingers
  end

#!OML:ASF H:\ManfredETheater\Project 1\Capture day 1\Session 1\subject.ASF
:FULLY-SPECIFIED
:DEGREES
31
root -1.15225 15.3414 24.1489 -165.885 -10.5979 -192.042
lowerback 14.2458 -5.48693 -6.90056
upperback -0.335425 -8.60982 -0.437144
thorax -7.37247 -3.98698 5.07318
lowerneck -18.0684 -0.590942 -3.36378
upperneck 3.03338 0.176333 0.890172
head 3.76804 0.212943 0.835048
rclavicle -1.0138e-013 -4.53229e-014
rhumerus -77.3204 0.789566 -61.4325
rradius 41.3878
rwrist -4.75322
rhand -22.3014 5.75592
rfingers 7.12502
rthumb 4.11773 -24.184
lclavicle -1.0138e-013 -4.53229e-014
lhumerus -40.2678 -24.5486 103.575
lradius 114.498
lwrist 2.11541
lhand -25.6386 -15.6767
lfingers 7.12502
lthumb 0.894791 14.3011
rfemur -70.1666 -11.7619 10.3707
rtibia 56.725
rfoot 2.0103 -6.1258
rtoes -36.6719
lfemur 3.18999 -10.3876 -27.6957
ltibia 45.5769
lfoot -16.8923 -16.3493
ltoes -16.7233
32
root -1.14925 15.325 23.5413 -166.584 -10.3848 -192.515
lowerback 14.0593 -5.43224 -7.3096
upperback -0.308755 -8.61363 -0.620171
thorax -7.21054 -3.99191 5.07618
lowerneck -18.0451 -0.51736 -3.34765
upperneck 3.6009 0.256759 0.648915
head 3.93938 0.217847 0.764279
rclavicle 1.53064e-014 -3.57812e-014
rhumerus -77.3388 1.11972 -60.0158
rradius 40.8768
rwrist -4.17538
rhand -22.3553 6.03067
rfingers 7.12502
rthumb 4.06565 -23.9103
lclavicle 1.53064e-014 -3.57812e-014
lhumerus -40.9524 -24.2734 103.208
lradius 114.59
lwrist 1.85036
lhand -25.8352 -15.6108
lfingers 7.12502
lthumb 0.704947 14.3677
rfemur -69.1812 -11.6847 9.8865
rtibia 52.711
rfoot 6.02555 -5.20421
rtoes -35.8664
lfemur 5.26536 -11.501 -28.8219
ltibia 46.0168
lfoot -15.6635 -15.9196
ltoes -17.4174
33
root -1.14325 15.3003 22.942 -167.279 -10.1766 -193.031
lowerback 13.996 -5.31251 -7.821
upperback -0.300128 -8.55937 -0.797433
thorax -7.1301 -3.96008 5.14851
lowerneck -18.0317 -0.495891 -3.34935
upperneck 4.12951 0.278274 0.430187
head 4.10182 0.196823 0.698437
rclavicle -1.85864e-014 1.11319e-014
rhumerus -77.1814 1.45936 -58.7874
rradius 40.4367
rwrist -3.76641
rhand -22.4207 6.29369
rfingers 7.12502
rthumb 4.00251 -23.6485
lclavicle -1.85864e-014 1.11319e-014
lhumerus -41.5898 -23.7543 102.729
lradius 114.124
lwrist 2.07459
lhand -25.8725 -15.4109
lfingers 7.12502
lthumb 0.668873 14.5678
rfemur -68.1556 -11.7105 9.58513
rtibia 49.4052
rfoot 9.50965 -4.42734
rtoes -34.0804
lfemur 6.68523 -12.2491 -29.9541
ltibia 47.4885
lfoot -14.9611 -15.7085
ltoes -17.692
34
root -1.13353 15.2704 22.3524 -167.97 -10.0068 -193.508
lowerback 14.0497 -5.13594 -8.35618
upperback -0.302357 -8.44222 -0.940588
thorax -7.12807 -3.89078 5.27536
lowerneck -18.026 -0.530893 -3.38036
upperneck 4.59118 0.236315 0.24679
head 4.24602 0.149004 0.642715
rclavicle -1.10127e-013 1.19271e-014
rhumerus -76.8795 1.80204 -57.7846
rradius 40.1095
rwrist -3.60392
rhand -22.5179 6.52031
rfingers 7.12502
rthumb 3.90865 -23.4236
lclavicle -1.10127e-013 1.19271e-014
lhumerus -42.1717 -23.0127 102.16
lradius 113.13
lwrist 2.54994
lhand -25.7499 -15.1363
lfingers 7.12502
lthumb 0.787287 14.842
rfemur -67.1684 -11.8671 9.60523
rtibia 47.0312
rfoot 12.0675 -3.67928
rtoes -31.1781
lfemur 7.37447 -12.592 -30.9055
ltibia 49.9754
lfoot -14.6553 -15.6603
ltoes -17.6736
